<svg xmlns="http://www.w3.org/2000/svg" xmlns:xlink="http://www.w3.org/1999/xlink" width="50" zoomAndPan="magnify" viewBox="0 0 37.5 37.499999" height="50" preserveAspectRatio="xMidYMid meet" version="1.0"><path fill="#45f882" d="M 3.734375 16.652344 C 4.652344 9.363281 10.875 3.699219 18.410156 3.699219 C 25.945312 3.699219 32.167969 9.363281 33.085938 16.652344 L 36.820312 16.652344 C 35.890625 7.316406 27.988281 0 18.410156 0 C 8.832031 0 0.933594 7.316406 0 16.652344 Z M 6.730469 27.566406 C 5.144531 25.519531 4.074219 23.050781 3.734375 20.355469 L 0 20.355469 C 0.371094 24.070312 1.859375 27.453125 4.105469 30.195312 Z M 15.519531 33.007812 C 13.230469 32.550781 11.128906 31.566406 9.351562 30.179688 L 6.71875 32.808594 C 9.136719 34.789062 12.054688 36.171875 15.253906 36.730469 Z M 24.203125 32.105469 C 22.65625 32.765625 20.972656 33.171875 19.210938 33.269531 L 18.945312 36.980469 C 21.484375 36.910156 23.886719 36.308594 26.070312 35.308594 Z M 30.015625 27.625 C 29.25 28.597656 28.375 29.480469 27.394531 30.234375 L 29.269531 33.441406 C 30.773438 32.347656 32.101562 31.03125 33.21875 29.542969 Z M 30.015625 27.625 " fill-opacity="1" fill-rule="nonzero"/></svg>