<svg xmlns="http://www.w3.org/2000/svg" xmlns:xlink="http://www.w3.org/1999/xlink" width="50" zoomAndPan="magnify" viewBox="0 0 37.5 37.499999" height="50" preserveAspectRatio="xMidYMid meet" version="1.0"><defs><clipPath id="e7952503db"><path d="M 16 0.554688 L 21 0.554688 L 21 10 L 16 10 Z M 16 0.554688 " clip-rule="nonzero"/></clipPath><clipPath id="3935246349"><path d="M 0.554688 16 L 10 16 L 10 21 L 0.554688 21 Z M 0.554688 16 " clip-rule="nonzero"/></clipPath><clipPath id="1ce6a880ed"><path d="M 16 27 L 21 27 L 21 36.820312 L 16 36.820312 Z M 16 27 " clip-rule="nonzero"/></clipPath><clipPath id="f39c345502"><path d="M 27 16 L 36.820312 16 L 36.820312 21 L 27 21 Z M 27 16 " clip-rule="nonzero"/></clipPath></defs><g clip-path="url(#e7952503db)"><path fill="#a8741a" d="M 18.503906 9.527344 C 19.738281 9.527344 20.746094 8.523438 20.746094 7.285156 L 20.746094 2.796875 C 20.746094 1.5625 19.738281 0.554688 18.503906 0.554688 C 17.265625 0.554688 16.257812 1.5625 16.257812 2.796875 L 16.257812 7.285156 C 16.257812 8.523438 17.265625 9.527344 18.503906 9.527344 Z M 18.503906 9.527344 " fill-opacity="1" fill-rule="nonzero"/></g><g clip-path="url(#3935246349)"><path fill="#a8741a" d="M 7.285156 16.257812 L 2.796875 16.257812 C 1.5625 16.257812 0.554688 17.265625 0.554688 18.503906 C 0.554688 19.738281 1.5625 20.746094 2.796875 20.746094 L 7.285156 20.746094 C 8.523438 20.746094 9.527344 19.738281 9.527344 18.503906 C 9.527344 17.265625 8.523438 16.257812 7.285156 16.257812 Z M 7.285156 16.257812 " fill-opacity="1" fill-rule="nonzero"/></g><path fill="#a8741a" d="M 5.8125 31.195312 C 6.234375 31.617188 6.800781 31.851562 7.398438 31.851562 C 7.996094 31.851562 8.5625 31.617188 8.984375 31.195312 L 12.15625 28.023438 C 13.03125 27.148438 13.03125 25.722656 12.15625 24.847656 C 11.28125 23.976562 9.859375 23.976562 8.984375 24.847656 L 5.8125 28.023438 C 4.9375 28.894531 4.9375 30.320312 5.8125 31.195312 Z M 5.8125 31.195312 " fill-opacity="1" fill-rule="nonzero"/><g clip-path="url(#1ce6a880ed)"><path fill="#a8741a" d="M 16.257812 34.207031 C 16.257812 35.445312 17.265625 36.453125 18.503906 36.453125 C 19.738281 36.453125 20.746094 35.445312 20.746094 34.207031 L 20.746094 29.722656 C 20.746094 28.484375 19.738281 27.476562 18.503906 27.476562 C 17.265625 27.476562 16.257812 28.484375 16.257812 29.722656 Z M 16.257812 34.207031 " fill-opacity="1" fill-rule="nonzero"/></g><path fill="#a8741a" d="M 24.847656 28.023438 L 28.023438 31.195312 C 28.445312 31.617188 29.007812 31.851562 29.609375 31.851562 C 30.207031 31.851562 30.769531 31.617188 31.195312 31.195312 C 32.070312 30.320312 32.070312 28.894531 31.195312 28.023438 L 28.023438 24.847656 C 27.148438 23.976562 25.722656 23.976562 24.847656 24.847656 C 23.976562 25.722656 23.976562 27.148438 24.847656 28.023438 Z M 24.847656 28.023438 " fill-opacity="1" fill-rule="nonzero"/><g clip-path="url(#f39c345502)"><path fill="#a8741a" d="M 34.207031 16.257812 L 29.722656 16.257812 C 28.484375 16.257812 27.476562 17.265625 27.476562 18.503906 C 27.476562 19.738281 28.484375 20.746094 29.722656 20.746094 L 34.207031 20.746094 C 35.445312 20.746094 36.453125 19.738281 36.453125 18.503906 C 36.453125 17.265625 35.445312 16.257812 34.207031 16.257812 Z M 34.207031 16.257812 " fill-opacity="1" fill-rule="nonzero"/></g><path fill="#a8741a" d="M 26.4375 12.816406 C 27.035156 12.816406 27.597656 12.582031 28.023438 12.15625 L 31.195312 8.984375 C 32.070312 8.109375 32.070312 6.6875 31.195312 5.8125 C 30.320312 4.9375 28.894531 4.9375 28.023438 5.8125 L 24.847656 8.984375 C 23.976562 9.859375 23.976562 11.28125 24.847656 12.15625 C 25.273438 12.582031 25.835938 12.816406 26.4375 12.816406 Z M 26.4375 12.816406 " fill-opacity="1" fill-rule="nonzero"/></svg>