<svg xmlns="http://www.w3.org/2000/svg" xmlns:xlink="http://www.w3.org/1999/xlink" width="500" zoomAndPan="magnify" viewBox="0 0 375 112.499997" height="150" preserveAspectRatio="xMidYMid meet" version="1.0"><defs><g/><clipPath id="2fd5b38e3d"><path d="M 6.011719 22.042969 L 74 22.042969 L 74 90 L 6.011719 90 Z M 6.011719 22.042969 " clip-rule="nonzero"/></clipPath></defs><g clip-path="url(#2fd5b38e3d)"><path fill="#a8741a" d="M 39.960938 22.042969 C 21.15625 22.042969 6.011719 37.191406 6.011719 55.992188 C 6.011719 74.796875 21.15625 89.941406 39.960938 89.941406 C 58.761719 89.941406 73.910156 74.796875 73.910156 55.992188 C 73.910156 37.191406 58.761719 22.042969 39.960938 22.042969 Z M 50.40625 37.710938 C 53.277344 37.710938 55.628906 40.0625 55.628906 42.933594 C 55.628906 45.808594 53.277344 48.15625 50.40625 48.15625 C 47.535156 48.15625 45.183594 45.808594 45.183594 42.933594 C 45.183594 40.0625 47.535156 37.710938 50.40625 37.710938 Z M 26.902344 40.324219 C 28.46875 40.324219 29.515625 41.367188 29.515625 42.933594 C 29.515625 41.367188 30.558594 40.324219 32.125 40.324219 C 33.691406 40.324219 34.738281 41.367188 34.738281 42.933594 C 34.738281 45.808594 32.386719 48.15625 29.515625 48.15625 C 26.640625 48.15625 24.292969 45.808594 24.292969 42.933594 C 24.292969 41.367188 25.335938 40.324219 26.902344 40.324219 Z M 39.960938 76.882812 C 28.46875 76.882812 19.066406 68.789062 19.066406 58.605469 C 19.066406 57.035156 20.113281 55.992188 21.679688 55.992188 C 23.246094 55.992188 24.292969 57.035156 24.292969 58.605469 C 24.292969 65.917969 31.34375 71.660156 39.960938 71.660156 C 48.578125 71.660156 55.628906 65.917969 55.628906 58.605469 C 55.628906 57.035156 56.671875 55.992188 58.242188 55.992188 C 59.808594 55.992188 60.851562 57.035156 60.851562 58.605469 C 60.851562 68.789062 51.449219 76.882812 39.960938 76.882812 Z M 39.960938 76.882812 " fill-opacity="1" fill-rule="nonzero"/></g><g fill="#a8741a" fill-opacity="1"><g transform="translate(81.469124, 77.088873)"><g><path d="M 0 -30.332031 C 0 -29.71875 0.613281 -29.667969 0.765625 -29.617188 C 2.710938 -28.953125 2.457031 -26.292969 2.457031 -25.679688 L 2.457031 -6.035156 C 2.457031 -3.121094 2.046875 -1.382812 0.664062 0 L 17.800781 0 C 16.421875 -1.382812 16.011719 -3.121094 16.011719 -6.035156 L 16.011719 -34.578125 C 16.011719 -35.601562 15.960938 -36.574219 14.476562 -36.574219 C 11.457031 -36.574219 2.558594 -31.972656 0.5625 -31 C 0.460938 -30.949219 0 -30.84375 0 -30.332031 Z M 9.105469 -54.171875 C 4.605469 -54.171875 1.636719 -51.203125 1.636719 -46.703125 C 1.636719 -42.203125 4.605469 -39.234375 9.105469 -39.234375 C 13.605469 -39.234375 16.574219 -42.203125 16.574219 -46.703125 C 16.574219 -51.203125 13.605469 -54.171875 9.105469 -54.171875 Z M 9.105469 -54.171875 "/></g></g></g><g fill="#a8741a" fill-opacity="1"><g transform="translate(99.52464, 77.088873)"><g><path d="M 17.648438 0 C 16.265625 -1.382812 15.859375 -3.121094 15.859375 -6.035156 L 15.859375 -19.949219 C 15.859375 -25.628906 18.007812 -27.214844 20.359375 -27.214844 C 22.609375 -27.214844 23.273438 -25.015625 23.273438 -22.660156 L 23.273438 -6.035156 C 23.273438 -3.121094 22.867188 -1.382812 21.484375 0 L 38.621094 0 C 37.238281 -1.382812 36.832031 -3.121094 36.832031 -6.035156 L 36.832031 -14.785156 L 36.777344 -24.554688 C 36.777344 -29.875 35.5 -36.574219 28.03125 -36.574219 C 19.386719 -36.574219 18.3125 -29.464844 16.214844 -29.464844 C 16.011719 -29.464844 15.859375 -29.464844 15.859375 -30.691406 L 15.859375 -31.5625 C 15.859375 -34.171875 15.242188 -35.808594 13.042969 -35.808594 L 0.511719 -35.808594 C 1.894531 -34.425781 2.300781 -32.6875 2.300781 -29.769531 L 2.300781 -6.035156 C 2.300781 -3.121094 1.894531 -1.382812 0.511719 0 Z M 17.648438 0 "/></g></g></g><g fill="#a8741a" fill-opacity="1"><g transform="translate(138.397709, 77.088873)"><g><path d="M 17.648438 0 C 16.265625 -1.382812 15.859375 -3.121094 15.859375 -6.035156 L 15.859375 -19.949219 C 15.859375 -25.628906 18.007812 -27.214844 20.359375 -27.214844 C 22.609375 -27.214844 23.273438 -25.015625 23.273438 -22.660156 L 23.273438 -6.035156 C 23.273438 -3.121094 22.867188 -1.382812 21.484375 0 L 38.621094 0 C 37.238281 -1.382812 36.832031 -3.121094 36.832031 -6.035156 L 36.832031 -14.785156 L 36.777344 -24.554688 C 36.777344 -29.875 35.5 -36.574219 28.03125 -36.574219 C 19.386719 -36.574219 18.3125 -29.464844 16.214844 -29.464844 C 16.011719 -29.464844 15.859375 -29.464844 15.859375 -30.691406 L 15.859375 -31.5625 C 15.859375 -34.171875 15.242188 -35.808594 13.042969 -35.808594 L 0.511719 -35.808594 C 1.894531 -34.425781 2.300781 -32.6875 2.300781 -29.769531 L 2.300781 -6.035156 C 2.300781 -3.121094 1.894531 -1.382812 0.511719 0 Z M 17.648438 0 "/></g></g></g><g fill="#a8741a" fill-opacity="1"><g transform="translate(177.270779, 77.088873)"><g><path d="M 6.496094 -4.5 C 9.976562 -0.972656 14.527344 0.765625 19.183594 0.765625 C 23.941406 0.765625 28.800781 -1.125 32.535156 -4.910156 C 39.847656 -12.328125 40.054688 -24.09375 32.941406 -31.253906 C 29.464844 -34.785156 24.910156 -36.523438 20.257812 -36.523438 C 15.5 -36.523438 10.640625 -34.628906 6.90625 -30.898438 C -0.460938 -23.480469 -0.613281 -11.714844 6.496094 -4.5 Z M 17.238281 -33.8125 C 20.5625 -34.324219 24.347656 -27.570312 25.679688 -18.722656 C 27.007812 -9.71875 25.421875 -2.199219 22.148438 -1.6875 C 18.824219 -1.175781 15.039062 -7.878906 13.65625 -16.777344 C 12.277344 -25.730469 13.863281 -33.300781 17.238281 -33.8125 Z M 17.238281 -33.8125 "/></g></g></g><g fill="#a8741a" fill-opacity="1"><g transform="translate(216.70649, 77.088873)"><g><path d="M 4.347656 -25.578125 C 6.085938 -19.746094 6.957031 -16.984375 8.183594 -12.175781 C 9.515625 -7.007812 10.996094 0 15.191406 0 L 26.394531 0 C 27.828125 0 29.3125 0.0507812 30.386719 -3.070312 C 34.066406 -13.710938 38.46875 -25.066406 38.46875 -30.027344 C 38.46875 -33.351562 36.933594 -36.574219 32.890625 -36.574219 C 27.570312 -36.574219 21.023438 -32.839844 21.023438 -29.617188 C 21.023438 -27.007812 30.28125 -28.082031 30.28125 -15.039062 C 30.28125 -9.308594 28.390625 -3.375 26.601562 -3.375 C 24.09375 -3.375 21.023438 -16.726562 18.671875 -25.578125 C 17.648438 -29.464844 16.675781 -32.941406 17.902344 -35.808594 L 0 -35.808594 C 2.148438 -33.914062 3.121094 -29.71875 4.347656 -25.578125 Z M 4.347656 -25.578125 "/></g></g></g><g fill="#a8741a" fill-opacity="1"><g transform="translate(256.449093, 77.088873)"><g><path d="M 6.496094 -4.5 C 9.976562 -0.972656 14.527344 0.765625 19.183594 0.765625 C 23.941406 0.765625 28.800781 -1.125 32.535156 -4.910156 C 39.847656 -12.328125 40.054688 -24.09375 32.941406 -31.253906 C 29.464844 -34.785156 24.910156 -36.523438 20.257812 -36.523438 C 15.5 -36.523438 10.640625 -34.628906 6.90625 -30.898438 C -0.460938 -23.480469 -0.613281 -11.714844 6.496094 -4.5 Z M 17.238281 -33.8125 C 20.5625 -34.324219 24.347656 -27.570312 25.679688 -18.722656 C 27.007812 -9.71875 25.421875 -2.199219 22.148438 -1.6875 C 18.824219 -1.175781 15.039062 -7.878906 13.65625 -16.777344 C 12.277344 -25.730469 13.863281 -33.300781 17.238281 -33.8125 Z M 17.238281 -33.8125 "/></g></g></g><g fill="#a8741a" fill-opacity="1"><g transform="translate(295.884805, 77.088873)"><g><path d="M 0.765625 -5.0625 C 0.765625 -2.8125 1.175781 0 3.53125 0 L 30.230469 0 C 32.175781 0 31.917969 -0.410156 31.917969 -3.683594 C 31.917969 -4.5 31.972656 -9.667969 31.972656 -11.40625 C 31.972656 -12.6875 31.867188 -13.042969 31.40625 -13.042969 C 30.332031 -13.042969 29.769531 -10.382812 25.628906 -10.382812 L 18.464844 -10.382812 C 16.933594 -10.382812 16.316406 -11.203125 16.316406 -12.738281 C 16.316406 -19.285156 32.992188 -27.980469 32.992188 -34.324219 C 32.992188 -36.113281 30.539062 -35.808594 29.566406 -35.808594 L 1.023438 -35.808594 L 1.023438 -25.578125 C 1.023438 -24.859375 1.433594 -24.144531 2.148438 -24.144531 C 3.53125 -24.144531 3.53125 -25.578125 7.878906 -25.578125 L 19.539062 -25.578125 C 20.460938 -25.578125 21.6875 -25.578125 21.6875 -24.605469 C 21.6875 -21.996094 0.765625 -16.0625 0.765625 -5.0625 Z M 0.765625 -5.0625 "/></g></g></g><g fill="#a8741a" fill-opacity="1"><g transform="translate(329.642988, 77.088873)"><g><path d="M 1.277344 -7.980469 C 1.277344 -3.070312 5.421875 0.765625 10.382812 0.765625 C 17.699219 0.765625 19.183594 -3.988281 21.332031 -3.988281 C 22.097656 -3.988281 22.507812 -3.070312 22.660156 -2.199219 C 22.917969 -0.820312 23.785156 0 25.320312 0 L 37.851562 0 C 36.472656 -1.382812 36.0625 -3.121094 36.0625 -6.035156 L 36.0625 -21.230469 C 36.0625 -28.542969 30.539062 -36.574219 18.773438 -36.574219 C 13.351562 -36.574219 7.980469 -35.808594 4.5 -32.480469 C 3.171875 -31.253906 3.476562 -29.414062 3.476562 -27.675781 L 3.476562 -24.859375 C 3.476562 -23.992188 4.246094 -23.222656 5.0625 -23.222656 C 8.234375 -23.222656 11.5625 -33.660156 18.007812 -33.761719 C 21.792969 -33.8125 22.457031 -30.84375 22.457031 -28.59375 C 22.457031 -27.675781 22.097656 -26.652344 20.613281 -26.34375 C 10.996094 -24.347656 1.277344 -18.875 1.277344 -7.980469 Z M 20.613281 -23.019531 C 21.996094 -23.019531 22.457031 -22.148438 22.457031 -19.847656 C 22.457031 -16.675781 22.507812 -14.785156 22.507812 -11.5625 C 22.507812 -8.234375 21.125 -5.730469 18.363281 -5.730469 C 14.578125 -5.730469 13.503906 -9.207031 13.503906 -12.789062 C 13.503906 -19.082031 17.289062 -23.019531 20.613281 -23.019531 Z M 20.613281 -23.019531 "/></g></g></g></svg>